<?xml version="1.0" encoding="UTF-8" standalone="no" ?>
<!DOCTYPE svg PUBLIC "-//W3C//DTD SVG 1.1//EN" "http://www.w3.org/Graphics/SVG/1.1/DTD/svg11.dtd">
<svg xmlns="http://www.w3.org/2000/svg" version="1.1" width="1080"
     height="432" viewBox="0 360 1080 360" xml:space="preserve">
<desc>Created with Fabric.js 5.2.4</desc>
    <defs>
</defs>
    <rect x="0" y="0" width="100%" height="100%" fill="transparent"></rect>
    <g transform="matrix(1 0 0 1 540 540)" id="39c346f8-d414-4269-8c56-e476be8e8f0c">
<rect style="stroke: none; stroke-width: 1; stroke-dasharray: none; stroke-linecap: butt; stroke-dashoffset: 0; stroke-linejoin: miter; stroke-miterlimit: 4; fill: rgb(255,255,255); fill-rule: nonzero; opacity: 1; visibility: hidden;"
      vector-effect="non-scaling-stroke" x="-540" y="-540" rx="0" ry="0" width="1080" height="1080"/>
</g>
    <g transform="matrix(1 0 0 1 540 540)" id="c1b28ced-1631-4bbb-bdcd-04449911a09f">
</g>
    <g transform="matrix(7.3 0 0 7.3 144.82 539.63)" id="Fill-1">
<polygon
        style="stroke: none; stroke-width: 1; stroke-dasharray: none; stroke-linecap: butt; stroke-dashoffset: 0; stroke-linejoin: miter; stroke-miterlimit: 4; fill: rgb(255,255,255); fill-rule: evenodd; opacity: 1;"
        vector-effect="non-scaling-stroke" points="-2.12,10.95 2.12,10.95 2.12,-10.95 -2.12,-10.95 "/>
</g>
    <g transform="matrix(7.3 0 0 7.3 15.48 539.63)" id="Fill-2">
<polygon
        style="stroke: none; stroke-width: 1; stroke-dasharray: none; stroke-linecap: butt; stroke-dashoffset: 0; stroke-linejoin: miter; stroke-miterlimit: 4; fill: rgb(255,255,255); fill-rule: evenodd; opacity: 0.3;"
        vector-effect="non-scaling-stroke" points="-2.12,10.95 2.12,10.95 2.12,-10.95 -2.12,-10.95 "/>
</g>
    <g transform="matrix(7.3 0 0 7.3 78.88 539.63)" id="Fill-3">
<polygon
        style="stroke: none; stroke-width: 1; stroke-dasharray: none; stroke-linecap: butt; stroke-dashoffset: 0; stroke-linejoin: miter; stroke-miterlimit: 4; fill: rgb(255,255,255); fill-rule: evenodd; opacity: 0.3;"
        vector-effect="non-scaling-stroke" points="-2.12,10.95 2.12,10.95 2.12,-10.95 -2.12,-10.95 "/>
</g>
    <g transform="matrix(7.3 0 0 7.3 15.48 569.76)" id="Fill-4">
<polygon
        style="stroke: none; stroke-width: 1; stroke-dasharray: none; stroke-linecap: butt; stroke-dashoffset: 0; stroke-linejoin: miter; stroke-miterlimit: 4; fill: rgb(255,255,255); fill-rule: evenodd; opacity: 1;"
        vector-effect="non-scaling-stroke" points="-2.12,6.91 2.12,6.91 2.12,-6.91 -2.12,-6.91 "/>
</g>
    <g transform="matrix(7.3 0 0 7.3 78.88 586.52)" id="Fill-5">
<polygon
        style="stroke: none; stroke-width: 1; stroke-dasharray: none; stroke-linecap: butt; stroke-dashoffset: 0; stroke-linejoin: miter; stroke-miterlimit: 4; fill: rgb(255,255,255); fill-rule: evenodd; opacity: 1;"
        vector-effect="non-scaling-stroke" points="-2.12,4.24 2.12,4.24 2.12,-4.24 -2.12,-4.24 "/>
</g>
    <g transform="matrix(1.35 0 0 1.35 609.55 532)" style="" id="f735f1d9-b0fa-4054-9e9a-175c72712a46">
    <text xml:space="preserve" font-family="Lato" font-size="135" font-style="normal" font-weight="700"
          style="stroke: none; stroke-width: 1; stroke-dasharray: none; stroke-linecap: butt; stroke-dashoffset: 0; stroke-linejoin: miter; stroke-miterlimit: 4; fill: rgb(255,255,255); fill-rule: nonzero; opacity: 1; white-space: pre;"><tspan x="-311.4" y="42.41" >QuantHub</tspan></text>
</g>
</svg>
